HIERARCHY
ROOT hip
{
  OFFSET 0 0 0
  CHANNELS 6 Xposition Yposition Zposition Zrotation Yrotation Xrotation
  JOINT abdomen
  {
    OFFSET 0 20.6881 -0.73152
    CHANNELS 3 Zrotation Xrotation Yrotation
    JOINT chest
    {
      OFFSET 0 11.7043 -0.48768
      CHANNELS 3 Zrotation Xrotation Yrotation
      JOINT neck
      {
        OFFSET 0 22.1894 -2.19456
        CHANNELS 3 Zrotation Xrotation Yrotation
        JOINT head
        {
          OFFSET -0.24384 7.07133 1.2192
          CHANNELS 3 Zrotation Xrotation Yrotation
          JOINT leftEye
          {
            OFFSET 4.14528 8.04674 8.04672
            CHANNELS 3 Zrotation Xrotation Yrotation
            End Site
            {
              OFFSET 1 0 0
            }
          }
          JOINT rightEye
          {
            OFFSET -3.6576 8.04674 8.04672
            CHANNELS 3 Zrotation Xrotation Yrotation
            End Site
            {
              OFFSET 1 0 0
            }
          }
        }
      }
      JOINT rCollar
      {
        OFFSET -2.68224 19.2634 -4.8768
        CHANNELS 3 Zrotation Xrotation Yrotation
        JOINT rShldr
        {
          OFFSET -8.77824 -1.95073 1.46304
          CHANNELS 3 Zrotation Xrotation Yrotation
          JOINT rForeArm
          {
            OFFSET -28.1742 -1.7115 0.48768
            CHANNELS 3 Zrotation Xrotation Yrotation
            JOINT rHand
            {
              OFFSET -22.5879 0.773209 7.07136
              CHANNELS 3 Zrotation Xrotation Yrotation
              JOINT rThumb1
              {
                OFFSET -1.2192 -0.487915 3.41376
                CHANNELS 3 Zrotation Xrotation Yrotation
                JOINT rThumb2
                {
                  OFFSET -3.37035 -0.52449 3.41376
                  CHANNELS 3 Zrotation Xrotation Yrotation
                  End Site
                  {
                    OFFSET -1.78271 -1.18214 1.43049
                  }
                }
              }
              JOINT rIndex1
              {
                OFFSET -7.75947 0.938293 5.60832
                CHANNELS 3 Zrotation Xrotation Yrotation
                JOINT rIndex2
                {
                  OFFSET -2.54057 -0.884171 1.56538
                  CHANNELS 3 Zrotation Xrotation Yrotation
                  End Site
                  {
                    OFFSET -1.62519 -0.234802 1.16502
                  }
                }
              }
              JOINT rMid1
              {
                OFFSET -8.24714 1.18213 3.41376
                CHANNELS 3 Zrotation Xrotation Yrotation
                JOINT rMid2
                {
                  OFFSET -3.10165 -0.590103 1.0647
                  CHANNELS 3 Zrotation Xrotation Yrotation
                  End Site
                  {
                    OFFSET -2.48547 -0.328903 0.83742
                  }
                }
              }
              JOINT rRing1
              {
                OFFSET -8.82822 0.546677 1.51678
                CHANNELS 3 Zrotation Xrotation Yrotation
                JOINT rRing2
                {
                  OFFSET -2.60934 -0.819778 -0.0198488
                  CHANNELS 3 Zrotation Xrotation Yrotation
                  End Site
                  {
                    OFFSET -2.33842 -0.294052 0.168128
                  }
                }
              }
              JOINT rPinky1
              {
                OFFSET -8.27202 -0.0477905 -0.4584
                CHANNELS 3 Zrotation Xrotation Yrotation
                JOINT rPinky2
                {
                  OFFSET -1.82734 -0.647385 -0.700984
                  CHANNELS 3 Zrotation Xrotation Yrotation
                  End Site
                  {
                    OFFSET -1.69225 -0.51767 -0.607171
                  }
                }
              }
            }
          }
        }
      }
      JOINT lCollar
      {
        OFFSET 2.68224 19.2634 -4.8768
        CHANNELS 3 Zrotation Xrotation Yrotation
        JOINT lShldr
        {
          OFFSET 8.77824 -1.95073 1.46304
          CHANNELS 3 Zrotation Xrotation Yrotation
          JOINT lForeArm
          {
            OFFSET 28.1742 -1.7115 0.48768
            CHANNELS 3 Zrotation Xrotation Yrotation
            JOINT lHand
            {
              OFFSET 22.5879 0.773209 7.07136
              CHANNELS 3 Zrotation Xrotation Yrotation
              JOINT lThumb1
              {
                OFFSET 1.2192 -0.487915 3.41376
                CHANNELS 3 Zrotation Xrotation Yrotation
                JOINT lThumb2
                {
                  OFFSET 3.37035 -0.52449 3.41376
                  CHANNELS 3 Zrotation Xrotation Yrotation
                  End Site
                  {
                    OFFSET 1.78271 -1.18214 1.43049
                  }
                }
              }
              JOINT lIndex1
              {
                OFFSET 7.75947 0.938293 5.60832
                CHANNELS 3 Zrotation Xrotation Yrotation
                JOINT lIndex2
                {
                  OFFSET 2.54057 -0.884171 1.56538
                  CHANNELS 3 Zrotation Xrotation Yrotation
                  End Site
                  {
                    OFFSET 1.62519 -0.234802 1.16502
                  }
                }
              }
              JOINT lMid1
              {
                OFFSET 8.24714 1.18213 3.41376
                CHANNELS 3 Zrotation Xrotation Yrotation
                JOINT lMid2
                {
                  OFFSET 3.10165 -0.590103 1.0647
                  CHANNELS 3 Zrotation Xrotation Yrotation
                  End Site
                  {
                    OFFSET 2.48547 -0.328903 0.83742
                  }
                }
              }
              JOINT lRing1
              {
                OFFSET 8.82822 0.546677 1.51678
                CHANNELS 3 Zrotation Xrotation Yrotation
                JOINT lRing2
                {
                  OFFSET 2.60934 -0.819778 -0.0198488
                  CHANNELS 3 Zrotation Xrotation Yrotation
                  End Site
                  {
                    OFFSET 2.33842 -0.294052 0.168128
                  }
                }
              }
              JOINT lPinky1
              {
                OFFSET 8.27202 -0.0477905 -0.4584
                CHANNELS 3 Zrotation Xrotation Yrotation
                JOINT lPinky2
                {
                  OFFSET 1.82734 -0.647385 -0.700984
                  CHANNELS 3 Zrotation Xrotation Yrotation
                  End Site
                  {
                    OFFSET 1.69225 -0.51767 -0.607171
                  }
                }
              }
            }
          }
        }
      }
    }
  }
  JOINT rButtock
  {
    OFFSET -8.77824 4.35084 1.2192
    CHANNELS 3 Zrotation Xrotation Yrotation
    JOINT rThigh
    {
      OFFSET 0 -1.70687 -2.19456
      CHANNELS 3 Zrotation Xrotation Yrotation
      JOINT rShin
      {
        OFFSET 0 -36.8199 0.73152
        CHANNELS 3 Zrotation Xrotation Yrotation
        JOINT rFoot
        {
          OFFSET 0.73152 -45.1104 -5.12064
          CHANNELS 3 Zrotation Xrotation Yrotation
          End Site
          {
            OFFSET -1.1221 -3.69964 12.103
          }
        }
      }
    }
  }
  JOINT lButtock
  {
    OFFSET 8.77824 4.35084 1.2192
    CHANNELS 3 Zrotation Xrotation Yrotation
    JOINT lThigh
    {
      OFFSET 0 -1.70687 -2.19456
      CHANNELS 3 Zrotation Xrotation Yrotation
      JOINT lShin
      {
        OFFSET 0 -36.8199 0.73152
        CHANNELS 3 Zrotation Xrotation Yrotation
        JOINT lFoot
        {
          OFFSET -0.73152 -45.1104 -5.12064
          CHANNELS 3 Zrotation Xrotation Yrotation
          End Site
          {
            OFFSET 1.1221 -3.69964 12.103
          }
        }
      }
    }
  }
}
MOTION
Frames:	6
Frame Time:	0.00833333
-131.67 83.0491 16.2872 -188.042 23.6892 -172.043 -7.3758 -2.43269 12.1212 -10.4623 -14.5897 2.73997 16.8294 11.9331 10.033 -14.0967 5.38999 24.9187 -0.0 0.0 0.0 -0.0 0.0 0.0 -1.71049e-13 1.23994e-13 7.29353e-14 66.9859 30.7848 1.65869 -13.8067 -6.82922 25.1116 -0.172938 -12.2305 -1.74344 6.85147e-10 -1.49819e-10 -6.13939e-10 1.18844e-09 -2.64265e-10 -1.05402e-09 6.85149e-10 -1.49815e-10 -6.13955e-10 7.73091 5.47488 0.417314 6.85147e-10 -1.49816e-10 -6.13943e-10 2.90554 0.965183 0.102902 6.85154e-10 -1.49816e-10 -6.13942e-10 10.2786 0.731801 0.0259123 6.85148e-10 -1.49818e-10 -6.13936e-10 2.22167 -0.733487 -0.20892 -1.70999e-13 1.2399e-13 7.2808e-14 -65.777 21.6404 14.7678 -11.0075 -4.77895 19.7009 0.0885696 8.6311 -1.22182 1.67309e-10 1.24017e-09 1.8056e-09 3.05014e-10 2.15382e-09 3.12264e-09 1.67307e-10 1.24018e-09 1.8056e-09 -7.73091 5.47488 -0.417314 1.67312e-10 1.24017e-09 1.80559e-09 -2.90554 0.965183 -0.102902 1.67303e-10 1.24018e-09 1.8056e-09 -10.2786 0.731801 -0.0259123 1.67315e-10 1.24018e-09 1.80559e-09 -2.22167 -0.733487 0.20892 -2.03217e-16 0.0 -3.88251e-19 -18.8803 -20.8116 -6.16617 -0.109674 21.5148 0.764413 -7.09624 -24.7996 -12.8846 2.03217e-16 0.0 3.88251e-19 -18.2642 -8.09367 -20.0966 -0.0293512 7.42012 -0.249291 0.99403 -8.04481 3.39895
-131.399 82.9963 16.5034 -187.946 22.1662 -171.961 -7.79104 -2.08563 12.0855 -10.5912 -14.5816 2.71652 16.8669 11.5852 9.85219 -13.5363 5.51862 24.5711 -0.0 0.0 0.0 -0.0 0.0 0.0 -2.0273e-13 2.27384e-13 1.11354e-13 67.5687 29.1046 0.967169 -14.6422 -7.50107 26.8262 -0.270989 -14.8545 -2.13521 1.10264e-09 4.02162e-10 -1.48308e-09 1.91473e-09 6.8649e-10 -2.55183e-09 1.10264e-09 4.02168e-10 -1.4831e-09 7.73091 5.47488 0.417314 1.10264e-09 4.02167e-10 -1.48309e-09 2.90554 0.965183 0.102902 1.10265e-09 4.02166e-10 -1.48309e-09 10.2786 0.731801 0.0259123 1.10264e-09 4.02163e-10 -1.48308e-09 2.22167 -0.733487 -0.20892 -2.02618e-13 2.27374e-13 1.11289e-13 -66.1838 25.0593 14.8348 -11.2455 -4.93504 20.1563 0.119629 9.91558 -1.40738 -6.90468e-10 1.55489e-09 3.41002e-09 -1.16397e-09 2.70748e-09 5.90408e-09 -6.90467e-10 1.55489e-09 3.41002e-09 -7.73091 5.47488 -0.417314 -6.90464e-10 1.55489e-09 3.41002e-09 -2.90554 0.965183 -0.102902 -6.90475e-10 1.55489e-09 3.41001e-09 -10.2786 0.731801 -0.0259123 -6.90462e-10 1.55489e-09 3.41001e-09 -2.22167 -0.733487 0.20892 -2.03217e-16 0.0 -3.88251e-19 -18.2207 -20.7606 -5.0991 -0.112051 22.4368 0.780709 -7.36962 -25.158 -13.2384 2.03217e-16 0.0 3.88251e-19 -17.8409 -8.28624 -20.1394 -0.0264202 7.78991 -0.238064 0.917306 -8.1069 2.03423
-131.123 82.9331 16.709 -187.889 20.4797 -171.929 -8.14072 -1.72347 12.0005 -10.6722 -14.5916 2.67963 16.7852 11.2308 9.87626 -13.0124 5.69523 23.9117 -0.0 0.0 0.0 -0.0 0.0 0.0 -2.19433e-13 2.91823e-13 1.24837e-13 68.1689 27.8114 0.228002 -15.371 -8.11577 28.3559 -0.380531 -17.2739 -2.50482 1.39567e-09 6.11242e-10 -1.97894e-09 2.42387e-09 1.04644e-09 -3.40472e-09 1.39567e-09 6.11249e-10 -1.97896e-09 7.73091 5.47488 0.417314 1.39567e-09 6.11248e-10 -1.97895e-09 2.90554 0.965183 0.102902 1.39568e-09 6.11247e-10 -1.97895e-09 10.2786 0.731801 0.0259123 1.39567e-09 6.11243e-10 -1.97894e-09 2.22167 -0.733487 -0.20892 -2.19299e-13 2.9181e-13 1.24787e-13 -66.5915 27.9196 14.7507 -11.4382 -5.06244 20.5278 0.149995 10.9731 -1.5615 -1.17315e-09 1.7427e-09 4.31959e-09 -1.99035e-09 3.03755e-09 7.48059e-09 -1.17315e-09 1.7427e-09 4.31959e-09 -7.73091 5.47488 -0.417314 -1.17315e-09 1.7427e-09 4.31959e-09 -2.90554 0.965183 -0.102902 -1.17316e-09 1.7427e-09 4.31959e-09 -10.2786 0.731801 -0.0259123 -1.17315e-09 1.7427e-09 4.31958e-09 -2.22167 -0.733487 0.20892 -2.03217e-16 0.0 -3.88251e-19 -17.5708 -20.613 -4.127 -0.116262 23.3205 0.789529 -7.51215 -25.3785 -13.3888 2.03217e-16 0.0 3.88251e-19 -17.3904 -8.4542 -20.327 -0.0228023 8.14043 -0.222385 0.853343 -8.12526 0.697488
-130.839 82.8685 16.9147 -187.84 18.6491 -171.926 -8.46119 -1.31194 11.8425 -10.7077 -14.6337 2.61951 16.5584 10.8642 10.2616 -12.5623 5.92475 22.7452 -0.0 0.0 0.0 -0.0 0.0 0.0 -2.10293e-13 3.00317e-13 9.69258e-14 68.8187 26.9301 -0.610983 -16.0454 -8.73334 29.7538 -0.492638 -19.6296 -2.87065 1.49693e-09 3.15461e-10 -1.89537e-09 2.59807e-09 5.3788e-10 -3.25628e-09 1.49693e-09 3.15465e-10 -1.89539e-09 7.73091 5.47488 0.417314 1.49693e-09 3.15465e-10 -1.89538e-09 2.90554 0.965183 0.102902 1.49694e-09 3.15464e-10 -1.89538e-09 10.2786 0.731801 0.0259123 1.49693e-09 3.15461e-10 -1.89537e-09 2.22167 -0.733487 -0.20892 -2.10201e-13 3.003e-13 9.68136e-14 -66.9469 30.0822 14.4392 -11.5754 -5.15447 20.7923 0.175191 11.8261 -1.68636 -1.12459e-09 1.71764e-09 4.17942e-09 -1.90697e-09 2.99335e-09 7.23704e-09 -1.12459e-09 1.71764e-09 4.17942e-09 -7.73091 5.47488 -0.417314 -1.12459e-09 1.71764e-09 4.17943e-09 -2.90554 0.965183 -0.102902 -1.1246e-09 1.71764e-09 4.17942e-09 -10.2786 0.731801 -0.0259123 -1.12459e-09 1.71764e-09 4.17942e-09 -2.22167 -0.733487 0.20892 -2.03217e-16 0.0 -3.88251e-19 -17.0155 -20.3418 -3.26792 -0.122085 24.175 0.789901 -7.51075 -25.4826 -13.3029 2.03217e-16 0.0 3.88251e-19 -16.9791 -8.58864 -20.6468 -0.0182571 8.50708 -0.201718 0.803679 -8.1028 -0.673658
-130.528 82.8095 17.1303 -187.732 16.688 -171.913 -8.78548 -0.855768 11.622 -10.704 -14.6962 2.54077 16.2194 10.459 10.8912 -12.1285 6.16542 21.1743 -0.0 0.0 0.0 -0.0 0.0 0.0 -1.84942e-13 2.75674e-13 5.19356e-14 69.5745 26.4126 -1.61966 -16.7139 -9.37967 31.1598 -0.627956 -22.0908 -3.265 1.47397e-09 -2.88994e-10 -1.46677e-09 2.55542e-09 -5.01514e-10 -2.51151e-09 1.47398e-09 -2.88994e-10 -1.46679e-09 7.73091 5.47488 0.417314 1.47397e-09 -2.88994e-10 -1.46678e-09 2.90554 0.965183 0.102902 1.47398e-09 -2.88995e-10 -1.46677e-09 10.2786 0.731801 0.0259123 1.47397e-09 -2.88995e-10 -1.46677e-09 2.22167 -0.733487 -0.20892 -1.84937e-13 2.75656e-13 5.17089e-14 -67.2293 31.8207 13.8803 -11.6805 -5.22643 20.9942 0.200623 12.6471 -1.80719 -7.67733e-10 1.54241e-09 3.44856e-09 -1.29538e-09 2.68605e-09 5.96908e-09 -7.67736e-10 1.5424e-09 3.44856e-09 -7.73091 5.47488 -0.417314 -7.67729e-10 1.5424e-09 3.44856e-09 -2.90554 0.965183 -0.102902 -7.67744e-10 1.54241e-09 3.44856e-09 -10.2786 0.731801 -0.0259123 -7.67729e-10 1.54241e-09 3.44855e-09 -2.22167 -0.733487 0.20892 -2.03217e-16 0.0 -3.88251e-19 -16.5411 -19.9668 -2.48412 -0.128921 25.0229 0.783701 -7.39204 -25.4765 -13.0279 2.03217e-16 0.0 3.88251e-19 -16.5949 -8.70558 -21.044 -0.0131516 8.90236 -0.177405 0.763539 -8.05968 -2.12453
-130.169 82.7625 17.358 -187.506 14.6096 -171.861 -9.00272 -0.427555 11.3847 -10.6512 -14.7562 2.46198 15.8172 10.0488 11.4982 -11.6522 6.43755 19.5597 -0.0 0.0 0.0 -0.0 0.0 0.0 -1.60602e-13 2.39029e-13 8.65839e-15 70.3788 26.2344 -2.65859 -17.2568 -9.92019 32.3444 -0.768613 -24.2139 -3.61972 1.42759e-09 -9.84851e-10 -9.81157e-10 2.47238e-09 -1.70014e-09 -1.66855e-09 1.42759e-09 -9.84855e-10 -9.81181e-10 7.73091 5.47488 0.417314 1.42759e-09 -9.84855e-10 -9.81164e-10 2.90554 0.965183 0.102902 1.4276e-09 -9.84856e-10 -9.8116e-10 10.2786 0.731801 0.0259123 1.42758e-09 -9.84853e-10 -9.81154e-10 2.22167 -0.733487 -0.20892 -1.60685e-13 2.39011e-13 8.31867e-15 -67.4865 33.2455 13.1443 -11.7628 -5.28361 21.1521 0.220709 13.2566 -1.89742 -2.86717e-10 1.36343e-09 2.58121e-09 -4.70525e-10 2.3713e-09 4.46402e-09 -2.86722e-10 1.36343e-09 2.58122e-09 -7.73091 5.47488 -0.417314 -2.86713e-10 1.36343e-09 2.58121e-09 -2.90554 0.965183 -0.102902 -2.86728e-10 1.36343e-09 2.58121e-09 -10.2786 0.731801 -0.0259123 -2.86714e-10 1.36343e-09 2.58121e-09 -2.22167 -0.733487 0.20892 -2.03217e-16 0.0 -3.88251e-19 -15.9808 -19.5397 -1.76848 -0.136215 25.8271 0.771042 -7.15873 -25.3084 -12.599 2.03217e-16 0.0 3.88251e-19 -16.1009 -8.81049 -21.588 -0.00801278 9.23722 -0.149595 0.743587 -7.97484 -3.47927
